<svg width="12" height="16" viewBox="0 0 12 16" fill="none" xmlns="http://www.w3.org/2000/svg">
<path d="M5.89293 9.18869C5.36316 9.18869 4.84528 9.03159 4.40479 8.73727C3.9643 8.44294 3.62099 8.02461 3.41825 7.53516C3.21552 7.04572 3.16247 6.50714 3.26582 5.98755C3.36918 5.46796 3.62429 4.99068 3.99889 4.61608C4.3735 4.24147 4.85077 3.98637 5.37037 3.88301C5.88996 3.77966 6.42853 3.8327 6.91797 4.03544C7.40742 4.23817 7.82575 4.58149 8.12008 5.02198C8.4144 5.46247 8.5715 5.98034 8.5715 6.51012C8.57065 7.22026 8.28817 7.90107 7.78603 8.40321C7.28388 8.90536 6.60307 9.18784 5.89293 9.18869ZM5.89293 4.90297C5.57507 4.90297 5.26434 4.99723 5.00005 5.17383C4.73575 5.35042 4.52976 5.60142 4.40812 5.89509C4.28648 6.18876 4.25465 6.5119 4.31667 6.82365C4.37868 7.13541 4.53174 7.42177 4.75651 7.64654C4.98127 7.8713 5.26764 8.02437 5.57939 8.08638C5.89115 8.14839 6.21429 8.11656 6.50796 7.99492C6.80162 7.87328 7.05262 7.66729 7.22922 7.403C7.40581 7.1387 7.50007 6.82798 7.50007 6.51012C7.49965 6.08401 7.33019 5.67547 7.02888 5.37416C6.72757 5.07286 6.31904 4.9034 5.89293 4.90297Z" fill="#89888D"/>
<path d="M5.89286 15.6172L1.37358 10.2874C1.31078 10.2073 1.24863 10.1268 1.18715 10.0458C0.415561 9.02865 -0.00143273 7.7867 3.69867e-06 6.51004C3.69867e-06 4.94716 0.620857 3.44829 1.72598 2.34317C2.83111 1.23804 4.32998 0.617188 5.89286 0.617188C7.45574 0.617188 8.95462 1.23804 10.0597 2.34317C11.1649 3.44829 11.7857 4.94716 11.7857 6.51004C11.787 7.78609 11.3702 9.02741 10.5991 10.0442L10.5986 10.0458C10.5986 10.0458 10.4379 10.2568 10.4138 10.2852L5.89286 15.6172ZM2.04268 9.40022C2.04268 9.40022 2.1675 9.56522 2.1959 9.60058L5.89286 13.9608L9.59465 9.59469C9.61822 9.56522 9.74358 9.39915 9.74411 9.39862C10.3748 8.5678 10.7156 7.5531 10.7143 6.51004C10.7143 5.23132 10.2063 4.00497 9.30213 3.10078C8.39793 2.19659 7.17158 1.68862 5.89286 1.68862C4.61414 1.68862 3.38779 2.19659 2.4836 3.10078C1.5794 4.00497 1.07143 5.23132 1.07143 6.51004C1.07011 7.55378 1.41131 8.56911 2.04268 9.40022Z" fill="#89888D"/>
</svg>
