<svg width="15" height="16" viewBox="0 0 15 16" fill="none" xmlns="http://www.w3.org/2000/svg">
<path fill-rule="evenodd" clip-rule="evenodd" d="M13.8403 0.68739C13.9082 0.729384 13.9643 0.788026 14.0031 0.857755C14.042 0.927484 14.0625 1.00599 14.0625 1.08583V15.1483C14.0625 15.2726 14.0131 15.3919 13.9252 15.4798C13.8373 15.5677 13.7181 15.6171 13.5937 15.6171H10.7812C10.6569 15.6171 10.5377 15.5677 10.4498 15.4798C10.3619 15.3919 10.3125 15.2726 10.3125 15.1483V13.7421H9.375V15.1483C9.375 15.2726 9.32561 15.3919 9.2377 15.4798C9.14979 15.5677 9.03057 15.6171 8.90625 15.6171H0.46875C0.34443 15.6171 0.225201 15.5677 0.137294 15.4798C0.049386 15.3919 0 15.2726 0 15.1483V9.99207C7.46688e-05 9.89373 0.0310763 9.7979 0.0886171 9.71816C0.146158 9.63841 0.227323 9.57877 0.320625 9.5477L5.625 7.77957V4.83582C5.625 4.74885 5.6492 4.66358 5.6949 4.58957C5.7406 4.51556 5.80598 4.45573 5.88375 4.41676L13.3837 0.666765C13.4553 0.630958 13.5348 0.614055 13.6147 0.617665C13.6946 0.621275 13.7723 0.645278 13.8403 0.68739ZM5.625 8.7677L0.9375 10.3296V14.6796H5.625V8.7677ZM6.5625 14.6796H8.4375V13.2733C8.4375 13.149 8.48688 13.0298 8.57479 12.9419C8.6627 12.854 8.78193 12.8046 8.90625 12.8046H10.7812C10.9056 12.8046 11.0248 12.854 11.1127 12.9419C11.2006 13.0298 11.25 13.149 11.25 13.2733V14.6796H13.125V1.84426L6.5625 5.12551V14.6796Z" fill="#89888D"/>
<path d="M1.875 10.9297H2.8125V11.8672H1.875V10.9297ZM3.75 10.9297H4.6875V11.8672H3.75V10.9297ZM1.875 12.8047H2.8125V13.7422H1.875V12.8047ZM3.75 12.8047H4.6875V13.7422H3.75V12.8047ZM7.5 9.05469H8.4375V9.99218H7.5V9.05469ZM9.375 9.05469H10.3125V9.99218H9.375V9.05469ZM7.5 10.9297H8.4375V11.8672H7.5V10.9297ZM9.375 10.9297H10.3125V11.8672H9.375V10.9297ZM11.25 9.05469H12.1875V9.99218H11.25V9.05469ZM11.25 10.9297H12.1875V11.8672H11.25V10.9297ZM7.5 7.17969H8.4375V8.11719H7.5V7.17969ZM9.375 7.17969H10.3125V8.11719H9.375V7.17969ZM11.25 7.17969H12.1875V8.11719H11.25V7.17969ZM7.5 5.30469H8.4375V6.24219H7.5V5.30469ZM9.375 5.30469H10.3125V6.24219H9.375V5.30469ZM11.25 5.30469H12.1875V6.24219H11.25V5.30469ZM11.25 3.42969H12.1875V4.36719H11.25V3.42969Z" fill="#89888D"/>
</svg>
