<svg width="16" height="14" viewBox="0 0 16 14" fill="none" xmlns="http://www.w3.org/2000/svg">
<path d="M15.1174 6.64151C14.5038 5.29638 13.7737 4.19935 12.927 3.35042L12.039 4.27454C12.7631 4.99469 13.3939 5.9368 13.9393 7.11011C12.4872 10.2377 10.426 11.7235 7.60907 11.7235C6.76353 11.7235 5.98472 11.588 5.27264 11.317L4.31045 12.3183C5.29946 12.7935 6.399 13.0312 7.60907 13.0312C10.9635 13.0312 13.4663 11.2131 15.1174 7.5769C15.1837 7.43066 15.2182 7.27093 15.2182 7.1092C15.2182 6.94747 15.1837 6.78775 15.1174 6.64151ZM14.0079 0.817802L13.2639 0.0426151C13.2509 0.0291055 13.2355 0.0183882 13.2185 0.011076C13.2016 0.00376375 13.1834 0 13.1651 0C13.1467 0 13.1286 0.00376375 13.1116 0.011076C13.0947 0.0183882 13.0793 0.0291055 13.0663 0.0426151L11.1574 2.02817C10.105 1.46876 8.92224 1.18905 7.60907 1.18905C4.2546 1.18905 1.75184 3.00714 0.100783 6.64333C0.0344185 6.78957 0 6.94929 0 7.11102C0 7.27275 0.0344185 7.43247 0.100783 7.57871C0.760391 9.02447 1.5545 10.1833 2.48312 11.0552L0.636242 12.9767C0.610077 13.0039 0.595379 13.0409 0.595379 13.0794C0.595379 13.1179 0.610077 13.1549 0.636242 13.1821L1.38131 13.9575C1.40749 13.9847 1.44299 14 1.48001 14C1.51702 14 1.55252 13.9847 1.5787 13.9575L14.0079 1.0234C14.0209 1.00991 14.0312 0.993885 14.0382 0.976245C14.0452 0.958606 14.0488 0.939698 14.0488 0.920603C14.0488 0.901508 14.0452 0.882601 14.0382 0.864961C14.0312 0.847322 14.0209 0.831297 14.0079 0.817802ZM1.27886 7.11011C2.7327 3.98248 4.7939 2.49677 7.60907 2.49677C8.56096 2.49677 9.42646 2.66677 10.2117 3.01241L8.98472 4.28925C8.40366 3.96661 7.73833 3.84687 7.08689 3.94769C6.43545 4.04851 5.8324 4.36455 5.3667 4.8492C4.90099 5.33384 4.5973 5.96141 4.50042 6.63934C4.40354 7.31727 4.5186 8.00966 4.82863 8.61435L3.3727 10.1295C2.5669 9.38936 1.87226 8.38659 1.27886 7.11011ZM5.58452 7.11011C5.58483 6.78984 5.65773 6.47415 5.79729 6.18871C5.93686 5.90326 6.13916 5.6561 6.38777 5.46731C6.63637 5.27851 6.92426 5.1534 7.22805 5.10215C7.53184 5.05089 7.84297 5.07494 8.13616 5.17233L5.6772 7.73128C5.61557 7.53047 5.5843 7.32091 5.58452 7.11011Z" fill="#999797"/>
<path d="M7.54022 9.1446C7.47983 9.1446 7.42031 9.14169 7.36132 9.13606L6.43945 10.0954C6.99392 10.3164 7.59802 10.3655 8.17873 10.2368C8.75945 10.1081 9.2919 9.80711 9.71174 9.3702C10.1316 8.93329 10.4208 8.37918 10.5445 7.77486C10.6682 7.17053 10.621 6.54186 10.4086 5.96484L9.48675 6.9242C9.49216 6.98559 9.49495 7.04753 9.49495 7.11037C9.49509 7.37755 9.44463 7.64214 9.34644 7.88901C9.24825 8.13587 9.10427 8.36018 8.92273 8.54911C8.74119 8.73803 8.52565 8.88787 8.28842 8.99005C8.0512 9.09222 7.79695 9.14474 7.54022 9.1446Z" fill="#999797"/>
</svg>
