<svg width="87" height="105" viewBox="0 0 87 105" fill="none" xmlns="http://www.w3.org/2000/svg">
<path d="M41.4917 51.6709C41.55 51.7098 41.6182 51.7487 41.6862 51.7876C42.0556 52.0014 42.425 52.1764 42.8139 52.3222L41.4917 51.6709Z" fill="#A324F2" stroke="#212121"/>
<path d="M86 56.1527V59.9148C86 62.5006 85.1931 65.1739 83.5988 67.9347C81.9948 70.7052 80.0604 72.7369 77.8148 74.0395L28.6746 102.406C26.429 103.708 24.4946 103.893 22.8906 102.979C21.2866 102.065 20.4895 100.316 20.4895 97.7396V93.9775C20.4895 91.3139 21.0825 88.524 22.2782 85.5979C22.356 85.3938 22.4433 85.1994 22.5308 85.0049C23.6974 82.3219 25.1945 79.9014 27.0415 77.7433C31.2702 72.873 35.5669 68.5763 39.9414 64.8337C44.3062 61.1008 48.739 57.9317 53.2399 55.3361C57.7505 52.7309 62.1833 50.7769 66.5481 49.4743H66.5578C70.9323 48.162 75.2193 47.5009 79.448 47.4912C80.4395 47.5009 81.3242 47.7051 82.1116 48.0939C82.9087 48.4925 83.6086 49.0758 84.2113 49.8437C85.407 51.3894 86 53.4891 86 56.1527Z" fill="#A324F2" stroke="#212121"/>
<path d="M41.4917 51.6709C41.55 51.7098 41.6182 51.7487 41.6862 51.7876C42.0556 52.0014 42.425 52.1764 42.8139 52.3222L41.4917 51.6709Z" fill="#A324F2" stroke="#212121"/>
<path d="M69.6222 22.3794C69.6222 27.551 68.0183 32.8976 64.8104 38.4387C64.6548 38.7011 64.4992 38.9636 64.3437 39.2164C64.2951 39.3038 64.2465 39.3816 64.1882 39.4691C61.1163 44.4755 57.4709 48.1987 53.2423 50.6289C49.2663 52.9231 45.8056 53.4967 42.8407 52.3398L42.8115 52.3204L41.4893 51.6691C38.9619 50.1429 37.4746 47.5376 37.0177 43.863C36.9205 43.0659 36.8718 42.2007 36.8718 41.2967C36.8718 40.4412 36.9108 39.5858 37.008 38.7206C37.4455 34.3558 39.0106 29.8647 41.6839 25.2471C44.1044 21.0768 46.8944 17.7327 50.044 15.2247C51.0744 14.4081 52.1341 13.6887 53.2423 13.0471C57.4029 10.646 60.9997 10.1308 64.0521 11.5112L64.8104 11.8903C68.0183 13.7179 69.6222 17.2175 69.6222 22.3794Z" fill="#A324F2" stroke="#212121"/>
<path d="M82.1114 48.0922C81.324 47.7033 80.4394 47.4992 79.4478 47.4895C75.2192 47.4992 70.9322 48.1602 66.5577 49.4726H66.5479C62.1832 50.7752 57.7503 52.7291 53.2398 55.3344C48.7389 57.9299 44.3061 61.099 39.9413 64.8319C35.5668 68.5745 31.2701 72.8712 27.0414 77.7415C25.1944 79.8996 23.6972 82.3202 22.5307 85.0032C22.4432 85.1976 22.3558 85.392 22.278 85.5962C21.0823 88.5222 20.4894 91.3122 20.4894 93.9758V97.7378C20.4894 100.314 21.2865 102.064 22.8905 102.977L3.44827 93.2564C1.84429 92.3426 1.04712 90.5928 1.04712 88.0167V84.2547C1.04712 81.5911 1.64014 78.8011 2.83583 75.8751C4.03153 72.9587 5.61603 70.334 7.59913 68.0204C11.8279 63.1501 16.1246 58.8534 20.4991 55.1108C24.2125 51.9417 27.9648 49.1712 31.7755 46.8284L41.4868 51.6695C41.5452 51.7084 41.6133 51.7473 41.6814 51.7862C42.0508 52 42.4202 52.175 42.809 52.3208L42.8382 52.3403C45.8031 53.4971 49.2638 52.9235 53.2398 50.6294C57.4684 48.1991 61.1138 44.4759 64.1857 39.4695C64.244 39.3821 64.2925 39.3043 64.3412 39.2168L82.1114 48.0922Z" fill="#A324F2" stroke="#212121"/>
<path d="M64.0517 11.5129C60.9993 10.1325 57.4025 10.6477 53.2418 13.0488C52.1336 13.6904 51.074 14.4098 50.0436 15.2264C46.8939 17.7344 44.104 21.0785 41.6834 25.2488C39.0101 29.8663 37.445 34.3575 37.0076 38.7223C36.9104 39.5874 36.8714 40.4429 36.8714 41.2983C36.8714 42.2024 36.9201 43.0676 37.0173 43.8647C37.4742 47.5393 38.9614 50.1445 41.4889 51.6708L31.7775 46.8297L23.0188 42.4552L22.2412 42.0663C19.0333 40.2388 17.4292 36.7392 17.4292 31.5772C17.4292 26.4153 19.0333 21.059 22.2412 15.5277C25.4492 9.9964 29.2988 5.92326 33.7996 3.32773C38.3102 0.722473 42.1598 0.343351 45.3677 2.17092L64.0517 11.5129Z" fill="#A324F2" stroke="#212121"/>
</svg>
