<svg width="52" height="44" viewBox="0 0 52 44" fill="none" xmlns="http://www.w3.org/2000/svg">
<path d="M35.2308 7.07176L18.8512 27.0912C18.2006 27.8864 18.2584 29.0453 18.9849 29.7719L30.8619 41.6489C31.6986 42.4856 33.0748 42.4169 33.8241 41.5011L50.2036 21.4817C50.8543 20.6865 50.7965 19.5276 50.0699 18.801L38.1929 6.92402C37.3562 6.08734 35.98 6.15598 35.2308 7.07176Z" fill="#242EF2" stroke="#242EF2"/>
<path d="M23.4379 5.34212L3.8813 22.2716C3.10444 22.9441 2.96356 24.0958 3.55542 24.9358L13.2306 38.6659C13.9122 39.6332 15.2799 39.8004 16.1745 39.026L35.7311 22.0965C36.5079 21.424 36.6488 20.2723 36.0569 19.4324L26.3818 5.70221C25.7002 4.73498 24.3325 4.56769 23.4379 5.34212Z" fill="#A324F2" stroke="#A324F2"/>
</svg>
