<svg width="124" height="104" viewBox="0 0 124 104" fill="none" xmlns="http://www.w3.org/2000/svg">
<path d="M119.61 33.3885C119.289 33.2922 118.947 33.228 118.572 33.1852C115.492 32.843 111.438 34.1158 106.389 37.0252C105.555 37.5172 104.732 38.0092 103.929 38.5119C103.116 39.0147 102.336 39.5709 101.565 40.1806C102.475 41.2609 103.159 42.5979 103.609 44.1809C104.068 45.764 104.293 47.6037 104.293 49.6895V57.5191L118.99 49.037C120.188 48.3418 121.182 47.3042 121.984 45.9244C122.787 44.5339 123.193 43.1541 123.193 41.785V39.0147C123.193 35.9128 121.995 34.0302 119.61 33.3885Z" fill="#242EF2" stroke="#212121"/>
<path d="M114.796 17.7189C114.796 20.3715 113.983 23.1097 112.378 25.9228C111.779 26.9604 111.127 27.9123 110.432 28.7573C109.234 30.1906 107.886 31.3458 106.389 32.2122C104.538 33.2818 102.902 33.6241 101.479 33.2284C101.126 33.1321 100.784 32.9823 100.463 32.8005C98.8158 31.8699 97.9922 30.073 97.9922 27.4203C97.9922 25.9122 98.2489 24.3933 98.7516 22.8637C98.7516 22.853 98.7622 22.853 98.7622 22.853C99.158 21.6123 99.725 20.3715 100.463 19.1308C102.1 16.3283 104.078 14.264 106.389 12.927C108.774 11.5578 110.763 11.3332 112.378 12.2424C113.983 13.1623 114.796 14.9913 114.796 17.7189Z" fill="#242EF2" stroke="#212121"/>
<path d="M47.5911 56.5244C47.5911 59.1664 46.7889 61.9046 45.1738 64.7177C43.6121 67.4559 41.6975 69.4989 39.4085 70.868C39.3336 70.9215 39.2587 70.9643 39.1839 71.0071C36.8735 72.3441 34.9054 72.5366 33.2582 71.6061C31.6858 70.7076 30.8622 69.0283 30.798 66.5681C30.7874 66.4505 30.7874 66.3328 30.7874 66.2152C30.7874 63.4876 31.611 60.728 33.2582 57.9256C34.9054 55.1339 36.8735 53.0695 39.1839 51.7325C41.5691 50.3527 43.5586 50.1281 45.1738 51.048C46.7889 51.9678 47.5911 53.7862 47.5911 56.5244Z" fill="#242EF2" stroke="#212121"/>
<path d="M45.1738 51.0479C43.5587 50.128 41.5692 50.3526 39.184 51.7324C36.8736 53.0695 34.9055 55.1338 33.2583 57.9255C31.611 60.7279 30.7874 63.4876 30.7874 66.2151C30.7874 66.3328 30.7874 66.4504 30.7981 66.5681C30.8623 69.0282 31.6859 70.7075 33.2583 71.606L21.5994 65.7766L18.9788 64.4609L12.3899 61.1665L11.8658 60.9098C10.2186 59.9685 9.39502 58.1715 9.39502 55.5189C9.39502 52.8662 10.2186 50.0317 11.8658 47.2293C13.513 44.4376 15.4812 42.3732 17.7915 41.0362C20.1768 39.6564 22.1663 39.4318 23.7814 40.3517L39.5583 48.2455L45.1738 51.0479Z" fill="#242EF2" stroke="#212121"/>
<path d="M97.9904 53.326V56.3423C97.9904 57.7007 97.5839 59.0805 96.7817 60.4711C95.9795 61.8616 94.9847 62.8991 93.7868 63.5836L51.7828 87.832C50.5955 88.5165 49.6007 88.6342 48.7985 88.1742C47.9856 87.7143 47.5898 86.8051 47.5898 85.436V82.4304C47.5898 79.8526 48.1995 77.1571 49.4296 74.3119C50.649 71.4775 52.3817 68.6109 54.628 65.7122C56.0399 63.8831 57.6336 62.1076 59.3985 60.3962C60.4253 59.3907 61.5163 58.4174 62.6608 57.4547C65.7734 54.8555 69.1534 52.5024 72.7901 50.4059C73.8597 49.7855 74.908 49.2186 75.9241 48.6945C78.3949 47.4324 80.716 46.4483 82.898 45.7424C82.9408 45.7317 82.9836 45.7103 83.0264 45.6996C84.1709 45.3359 85.2619 45.0578 86.2887 44.8653C88.0536 44.5444 89.6473 44.4802 91.0592 44.6728C92.1823 44.8332 93.1664 45.1327 94.0221 45.5712C94.8778 46.0098 95.6051 46.5874 96.2041 47.304C97.3914 48.748 97.9904 50.7589 97.9904 53.326Z" fill="#242EF2" stroke="#212121"/>
<path d="M94.026 45.5721C93.1703 45.1336 92.1863 44.8341 91.0632 44.6736C89.6513 44.4811 88.0576 44.5453 86.2927 44.8662C85.2659 45.0587 84.1749 45.3368 83.0304 45.7005C82.9876 45.7005 82.9448 45.7326 82.902 45.7433C80.72 46.4492 78.3989 47.4333 75.9281 48.6954C74.912 49.2195 73.8637 49.7864 72.7941 50.4068C69.1574 52.5033 65.7773 54.8564 62.6647 57.4556C61.5202 58.4183 60.4293 59.3916 59.4025 60.3971C57.6376 62.1085 56.0438 63.884 54.6319 65.7131C52.3857 68.6118 50.6528 71.4783 49.4335 74.3128C48.2034 77.158 47.5938 79.8535 47.5938 82.4313V85.4369C47.5938 86.806 47.9896 87.7152 48.8025 88.1751L41.3471 84.4422C41.4434 82.9447 41.6681 81.4151 42.0318 79.8535C42.5131 77.7249 43.2512 75.5322 44.2352 73.286L40.3952 71.3607L39.4111 70.8687C41.7001 69.4995 43.6149 67.4566 45.1765 64.7183C46.7916 61.9052 47.5938 59.167 47.5938 56.525C47.5938 53.8831 46.7916 51.9685 45.1765 51.0486L39.561 48.2462C40.1172 47.7435 40.684 47.2514 41.2723 46.7594C43.9142 44.556 46.7488 42.5237 49.7759 40.684L63.8627 47.7221C66.3228 49.1233 69.2965 48.8131 72.7941 46.7915C74.1418 46.0107 75.4147 45.0694 76.602 43.9784C78.1422 42.5665 79.5434 40.8872 80.8056 38.9512L80.8589 38.9726L82.902 40.0101L94.026 45.5721Z" fill="#242EF2" stroke="#212121"/>
<path d="M104.293 49.6897V57.5193L97.993 54.3746V53.3264C97.993 50.7593 97.394 48.7484 96.2067 47.3044C95.6077 46.5878 94.8804 46.0102 94.0247 45.5716L82.9006 39.9989V38.9935C82.9006 37.8169 82.8258 36.7152 82.676 35.6884C83.3713 34.3085 83.9382 32.9287 84.3553 31.5703L97.7256 38.2554L101.566 40.1808C102.475 41.2611 103.159 42.5981 103.609 44.1811C104.068 45.7642 104.293 47.6039 104.293 49.6897Z" fill="#242EF2" stroke="#212121"/>
<path d="M119.611 33.3877C119.29 33.2914 118.948 33.2273 118.573 33.1845C115.493 32.8422 111.439 34.115 106.39 37.0244C105.556 37.5164 104.732 38.0085 103.93 38.5112C103.117 39.0139 102.336 39.5701 101.566 40.1798L97.7265 38.2545L84.3562 31.5693C84.9338 29.7403 85.2654 27.9219 85.3616 26.125C85.6504 25.9645 85.9284 25.8041 86.1958 25.665L100.465 32.7994C100.786 32.9812 101.128 33.131 101.481 33.2273C102.903 33.623 104.54 33.2807 106.39 32.2111C107.888 31.3447 109.235 30.1895 110.433 28.7562L119.611 33.3877Z" fill="#242EF2" stroke="#212121"/>
<path d="M112.382 12.2423C110.767 11.3331 108.777 11.5578 106.392 12.9269C104.082 14.2639 102.103 16.3283 100.466 19.1307C99.7284 20.3714 99.1615 21.6122 98.7657 22.853C98.7657 22.853 98.7551 22.853 98.7551 22.8637C98.2524 24.3932 97.9956 25.9121 97.9956 27.4202C97.9956 30.0729 98.8192 31.8699 100.466 32.8004L86.1977 25.6661L85.3955 25.2596V25.0564C85.3955 23.73 85.2671 22.5535 85.0104 21.5052C84.4863 19.3339 83.406 17.7723 81.7694 16.8417L81.0314 16.478L76.8064 14.3602C77.1487 12.4028 77.8974 10.424 79.074 8.43446C80.7105 5.63206 82.6893 3.56769 84.9997 2.23066C87.3849 0.861548 89.3744 0.636928 90.9896 1.54611L112.382 12.2423Z" fill="#242EF2" stroke="#212121"/>
<path d="M85.3941 25.0563V25.2596C85.3941 25.5484 85.3834 25.8372 85.362 26.126C85.2658 27.9229 84.9342 29.7413 84.3566 31.5703C83.9394 32.9288 83.3725 34.3086 82.6773 35.6884C82.3992 36.2553 82.0997 36.8222 81.7681 37.3891C81.4579 37.9239 81.137 38.448 80.8054 38.9507C79.5433 40.8867 78.1421 42.566 76.6018 43.9779C75.4146 45.069 74.1417 46.0102 72.794 46.791C69.2963 48.8126 66.3228 49.1228 63.8626 47.7216C61.4132 46.3311 60.1938 43.625 60.1938 39.6032C60.1938 38.1913 60.3436 36.758 60.6431 35.3354C61.1886 32.6293 62.2582 29.9231 63.8626 27.1849C66.3228 22.992 69.2963 19.8901 72.794 17.8685C74.1524 17.0877 75.4359 16.5529 76.6232 16.2641C78.2491 15.879 79.7144 15.9539 81.0301 16.478L81.7681 16.8417C83.4046 17.7722 84.4849 19.3339 85.0091 21.5052C85.2658 22.5534 85.3941 23.73 85.3941 25.0563Z" fill="#242EF2" stroke="#212121"/>
<path d="M81.0304 16.4782C79.7148 15.9541 78.2494 15.8792 76.6236 16.2643C75.4363 16.5531 74.1527 17.0879 72.7943 17.8687C69.2967 19.8903 66.3231 22.9922 63.863 27.1851C62.2585 29.9234 61.1889 32.6295 60.6434 35.3356C60.3439 36.7582 60.1942 38.1915 60.1942 39.6034C60.1942 43.6252 61.4135 46.3313 63.863 47.7219L49.7761 40.6837L43.0482 37.3144L42.4706 37.0256C40.0211 35.6351 38.8018 32.929 38.8018 28.9072C38.8018 24.8854 40.0211 20.6711 42.4706 16.4889C44.9307 12.296 47.9042 9.19411 51.4019 7.17252C54.9744 5.11884 57.9587 4.77658 60.376 6.14569L76.8054 14.3604L81.0304 16.4782Z" fill="#242EF2" stroke="#212121"/>
<path d="M44.234 73.2853C43.4639 73.5634 42.651 73.9271 41.8167 74.3763C40.9717 74.8149 40.1053 75.3069 39.1854 75.831C36.8643 77.1787 34.7465 78.6227 32.8319 80.1951C30.6071 82.0134 28.6711 83.9815 27.0131 86.1101C23.9326 90.0677 22.3924 93.7579 22.3924 97.2127V99.9937C22.3924 101.352 22.7881 102.261 23.601 102.721L2.45466 92.1427L2.20867 92.0251C1.39576 91.5651 1 90.656 1 89.2975V86.5165C1 83.0616 2.54025 79.3715 5.62076 75.4139C8.70127 71.467 12.7551 68.0442 17.793 65.1348C18.1995 64.8995 18.5952 64.6749 18.9803 64.4609L21.6009 65.7766L33.2597 71.606C34.9069 72.5366 36.875 72.344 39.1854 71.007C39.2603 70.9642 39.3352 70.9215 39.41 70.868L40.3941 71.36L44.234 73.2853Z" fill="#242EF2" stroke="#212121"/>
<path d="M44.2337 73.2852C43.2497 75.5314 42.5117 77.7241 42.0303 79.8526C41.6667 81.4143 41.442 82.9438 41.3458 84.4413C41.3137 84.9868 41.2923 85.5323 41.2923 86.0671V93.8967L26.585 102.379C25.3977 103.074 24.403 103.181 23.6008 102.721C22.7878 102.261 22.3921 101.352 22.3921 99.9936V97.2126C22.3921 93.7577 23.9323 90.0675 27.0129 86.1099C28.6708 83.9814 30.6068 82.0133 32.8316 80.1949C34.7462 78.6226 36.8641 77.1786 39.1851 75.8309C40.105 75.3067 40.9714 74.8147 41.8164 74.3762C42.6507 73.9269 43.4636 73.5633 44.2337 73.2852Z" fill="#242EF2" stroke="#212121"/>
<path d="M82.8998 39.9995L80.8567 38.9727L82.8998 39.9995Z" fill="#242EF2"/>
<path d="M82.8998 39.9995L80.8567 38.9727" stroke="#212121"/>
</svg>
