<svg width="33" height="33" viewBox="0 0 33 33" fill="none" xmlns="http://www.w3.org/2000/svg">
<path d="M21.0441 12.1579C22.638 12.1579 23.9316 13.5196 23.9316 15.1974V20.8421H23.925V21.2763C23.925 21.6218 23.7946 21.9531 23.5625 22.1974C23.3305 22.4417 23.0157 22.5789 22.6875 22.5789C22.3593 22.5789 22.0445 22.4417 21.8125 22.1974C21.5804 21.9531 21.45 21.6218 21.45 21.2763V17.3684H21.4566V15.1974C21.4566 15.0822 21.4131 14.9718 21.3358 14.8903C21.2584 14.8089 21.1535 14.7632 21.0441 14.7632H11.9658C11.8564 14.7632 11.7515 14.8089 11.6741 14.8903C11.5968 14.9718 11.5533 15.0822 11.5533 15.1974V20.8421H11.55V21.2763C11.55 21.6218 11.4196 21.9531 11.1875 22.1974C10.9555 22.4417 10.6407 22.5789 10.3125 22.5789C9.98429 22.5789 9.66953 22.4417 9.43746 22.1974C9.20538 21.9531 9.075 21.6218 9.075 21.2763V17.3684H9.0783V15.1974C9.0783 13.5196 10.3702 12.1579 11.9658 12.1579H21.0441ZM30.525 15.1974V21.2763C30.525 21.6218 30.6554 21.9531 30.8875 22.1974C31.1195 22.4417 31.4343 22.5789 31.7625 22.5789C32.0907 22.5789 32.4055 22.4417 32.6375 22.1974C32.8696 21.9531 33 21.6218 33 21.2763V15.1974C33 14.3912 32.6958 13.6181 32.1543 13.0481C31.6128 12.4781 30.8783 12.1579 30.1125 12.1579H24.5437C25.1097 12.8787 25.4793 13.7766 25.5634 14.7632H30.1125C30.2219 14.7632 30.3268 14.8089 30.4042 14.8903C30.4815 14.9718 30.525 15.0822 30.525 15.1974ZM0 21.2763C6.91641e-09 21.6218 0.130379 21.9531 0.362455 22.1974C0.594531 22.4417 0.909295 22.5789 1.2375 22.5789C1.56571 22.5789 1.88047 22.4417 2.11254 22.1974C2.34462 21.9531 2.475 21.6218 2.475 21.2763V15.1974C2.475 15.0822 2.51846 14.9718 2.59582 14.8903C2.67318 14.8089 2.7781 14.7632 2.8875 14.7632H7.44645C7.52852 13.8062 7.88403 12.8979 8.46615 12.1579H2.8875C2.12169 12.1579 1.38724 12.4781 0.845729 13.0481C0.304218 13.6181 0 14.3912 0 15.1974V21.2763ZM16.5 0C17.8128 0 19.0719 0.548965 20.0002 1.52613C20.9285 2.50329 21.45 3.82861 21.45 5.21053C21.45 6.59244 20.9285 7.91776 20.0002 8.89493C19.0719 9.87209 17.8128 10.4211 16.5 10.4211C15.1872 10.4211 13.9281 9.87209 12.9998 8.89493C12.0715 7.91776 11.55 6.59244 11.55 5.21053C11.55 3.82861 12.0715 2.50329 12.9998 1.52613C13.9281 0.548965 15.1872 0 16.5 0ZM16.5 2.60526C15.8436 2.60526 15.2141 2.87975 14.7499 3.36833C14.2858 3.85691 14.025 4.51957 14.025 5.21053C14.025 5.90148 14.2858 6.56414 14.7499 7.05273C15.2141 7.54131 15.8436 7.81579 16.5 7.81579C17.1564 7.81579 17.7859 7.54131 18.2501 7.05273C18.7142 6.56414 18.975 5.90148 18.975 5.21053C18.975 4.51957 18.7142 3.85691 18.2501 3.36833C17.7859 2.87975 17.1564 2.60526 16.5 2.60526ZM27.225 1.73684C28.319 1.73684 29.3682 2.19431 30.1418 3.00862C30.9154 3.82292 31.35 4.92735 31.35 6.07895C31.35 7.23055 30.9154 8.33498 30.1418 9.14928C29.3682 9.96358 28.319 10.4211 27.225 10.4211C26.131 10.4211 25.0818 9.96358 24.3082 9.14928C23.5346 8.33498 23.1 7.23055 23.1 6.07895C23.1 4.92735 23.5346 3.82292 24.3082 3.00862C25.0818 2.19431 26.131 1.73684 27.225 1.73684ZM27.225 4.3421C26.7874 4.3421 26.3677 4.52509 26.0583 4.85081C25.7488 5.17654 25.575 5.61831 25.575 6.07895C25.575 6.53959 25.7488 6.98136 26.0583 7.30708C26.3677 7.6328 26.7874 7.81579 27.225 7.81579C27.6626 7.81579 28.0823 7.6328 28.3917 7.30708C28.7012 6.98136 28.875 6.53959 28.875 6.07895C28.875 5.61831 28.7012 5.17654 28.3917 4.85081C28.0823 4.52509 27.6626 4.3421 27.225 4.3421ZM5.775 1.73684C6.86902 1.73684 7.91823 2.19431 8.69182 3.00862C9.4654 3.82292 9.9 4.92735 9.9 6.07895C9.9 7.23055 9.4654 8.33498 8.69182 9.14928C7.91823 9.96358 6.86902 10.4211 5.775 10.4211C4.68098 10.4211 3.63177 9.96358 2.85818 9.14928C2.0846 8.33498 1.65 7.23055 1.65 6.07895C1.65 4.92735 2.0846 3.82292 2.85818 3.00862C3.63177 2.19431 4.68098 1.73684 5.775 1.73684ZM5.775 4.3421C5.33739 4.3421 4.91771 4.52509 4.60827 4.85081C4.29884 5.17654 4.125 5.61831 4.125 6.07895C4.125 6.53959 4.29884 6.98136 4.60827 7.30708C4.91771 7.6328 5.33739 7.81579 5.775 7.81579C6.21261 7.81579 6.63229 7.6328 6.94173 7.30708C7.25116 6.98136 7.425 6.53959 7.425 6.07895C7.425 5.61831 7.25116 5.17654 6.94173 4.85081C6.63229 4.52509 6.21261 4.3421 5.775 4.3421ZM1.2375 24.3158C0.909295 24.3158 0.594531 24.453 0.362455 24.6973C0.130379 24.9416 0 25.2729 0 25.6184V26.4868C0 28.2142 0.651895 29.8709 1.81228 31.0923C2.97266 32.3138 4.54647 33 6.1875 33H26.8125C28.4535 33 30.0273 32.3138 31.1877 31.0923C32.3481 29.8709 33 28.2142 33 26.4868V25.6184C33 25.2729 32.8696 24.9416 32.6375 24.6973C32.4055 24.453 32.0907 24.3158 31.7625 24.3158H1.2375ZM6.1875 30.3947C5.27433 30.3947 4.3932 30.0404 3.71257 29.3996C3.03194 28.7587 2.59956 27.8763 2.4981 26.9211H30.5019C30.4004 27.8763 29.9681 28.7587 29.2874 29.3996C28.6068 30.0404 27.7257 30.3947 26.8125 30.3947H6.1875Z" fill="#6B9BEF"/>
</svg>
