<svg width="43" height="34" viewBox="0 0 43 34" fill="none" xmlns="http://www.w3.org/2000/svg">
<path d="M16.7856 17.125C19.1596 17.125 20.9106 15.3739 20.9106 13C20.9106 10.6261 19.1596 8.875 16.7856 8.875C14.4117 8.875 12.6606 10.6261 12.6606 13C12.6606 15.3739 14.4096 17.125 16.7856 17.125Z" fill="#EF956B"/>
<path d="M38 0.625H5C2.72506 0.625 0.875 2.35956 0.875 4.49219V29.7578C0.875 31.8904 2.72506 33.625 5 33.625H38C40.2749 33.625 42.125 31.8904 42.125 29.7578V4.49219C42.125 2.35956 40.2749 0.625 38 0.625ZM38 29.5L5 29.4773V4.75L38 4.77269V29.5Z" fill="#EF956B"/>
<path d="M25.6272 10.9363H33.8772V15.0613H25.6272V10.9363ZM27.6897 19.1863H33.8772V23.3113H27.6897V19.1863ZM24.4516 24.4168C24.4516 21.5829 20.9948 18.6707 16.7894 18.6707C12.5839 18.6707 9.1272 21.5829 9.1272 24.4168V25.3738H24.4516V24.4168Z" fill="#EF956B"/>
</svg>
