<svg width="20" height="20" viewBox="0 0 20 20" fill="none" xmlns="http://www.w3.org/2000/svg">
<path fill-rule="evenodd" clip-rule="evenodd" d="M0.158579 9.0666C1.01231 7.56044 3.88751 3.38867 9.54389 3.38867C15.2003 3.38867 18.0755 7.56044 18.9292 9.0666C19.1191 9.40165 19.1191 9.79999 18.9292 10.135C18.0755 11.6412 15.2003 15.813 9.54389 15.813C3.88751 15.813 1.01231 11.6412 0.158579 10.135C-0.0313348 9.79999 -0.0313345 9.40165 0.158579 9.0666ZM12.997 9.6013C12.997 11.5073 11.4518 13.0525 9.5458 13.0525C7.63976 13.0525 6.0946 11.5073 6.0946 9.6013C6.0946 7.69526 7.63976 6.15011 9.5458 6.15011C11.4518 6.15011 12.997 7.69526 12.997 9.6013Z" fill="#AEB9E1"/>
</svg>
