<svg width="17" height="18" viewBox="0 0 17 18" fill="none" xmlns="http://www.w3.org/2000/svg">
<path fill-rule="evenodd" clip-rule="evenodd" d="M16.5197 9.11149C16.5197 13.6218 12.8634 17.2782 8.35307 17.2782C3.84274 17.2782 0.186401 13.6218 0.186401 9.11149C0.186401 4.60117 3.84274 0.944824 8.35307 0.944824C12.8634 0.944824 16.5197 4.60117 16.5197 9.11149ZM8.3549 4.44481C8.79463 4.44481 9.15111 4.80129 9.15111 5.24102V8.31614H12.2218C12.6616 8.31614 13.018 8.67261 13.018 9.11234C13.018 9.55208 12.6616 9.90855 12.2218 9.90855H9.15111V12.9819C9.15111 13.4217 8.79463 13.7781 8.3549 13.7781C7.91516 13.7781 7.55869 13.4217 7.55869 12.9819V9.90855H4.48092C4.04118 9.90855 3.68471 9.55208 3.68471 9.11234C3.68471 8.67261 4.04118 8.31614 4.48092 8.31614H7.55869V5.24102C7.55869 4.80129 7.91516 4.44481 8.3549 4.44481Z" fill="#AEB9E1"/>
</svg>
