<svg width="18" height="18" viewBox="0 0 18 18" fill="none" xmlns="http://www.w3.org/2000/svg">
<path d="M8.57282 1.6C8.79268 1.22253 9.33801 1.22252 9.55787 1.6L11.8871 5.59912C11.9677 5.73739 12.1026 5.83544 12.259 5.86931L16.7822 6.84879C17.2091 6.94124 17.3777 7.45988 17.0866 7.78562L14.003 11.2367C13.8964 11.356 13.8448 11.5147 13.861 11.6739L14.3272 16.2783C14.3712 16.713 13.93 17.0335 13.5302 16.8573L9.29519 14.9911C9.14876 14.9266 8.98194 14.9266 8.83551 14.9911L4.60047 16.8573C4.20072 17.0335 3.75954 16.713 3.80354 16.2783L4.26974 11.6739C4.28586 11.5147 4.23431 11.356 4.12769 11.2367L1.0441 7.78562C0.753034 7.45988 0.921549 6.94124 1.34849 6.84879L5.87166 5.86931C6.02806 5.83544 6.16301 5.73739 6.24355 5.59912L8.57282 1.6Z" fill="#AEB9E1"/>
</svg>
