<svg width="37" height="34" viewBox="0 0 37 34" fill="none" xmlns="http://www.w3.org/2000/svg">
<path d="M33.3335 33.75H4.00016C3.0277 33.75 2.09507 33.3637 1.40744 32.6761C0.719804 31.9884 0.333496 31.0558 0.333496 30.0833V4.41667C0.333496 3.44421 0.719804 2.51157 1.40744 1.82394C2.09507 1.13631 3.0277 0.75 4.00016 0.75H33.3335C34.306 0.75 35.2386 1.13631 35.9262 1.82394C36.6139 2.51157 37.0002 3.44421 37.0002 4.41667V30.0833C37.0002 31.0558 36.6139 31.9884 35.9262 32.6761C35.2386 33.3637 34.306 33.75 33.3335 33.75ZM4.00016 8.08333V30.0833H33.3335V8.08333H4.00016ZM16.8335 24.8052L10.0373 18.009L12.6297 15.4167L16.8335 19.6205L24.704 11.75L27.2963 14.3423L16.8335 24.8033V24.8052Z" fill="#EF6BE4"/>
</svg>
